<svg width="390" height="210" viewBox="0 0 390 210" fill="none" xmlns="http://www.w3.org/2000/svg">
<g filter="url(#filter0_d_1_132)">
<path d="M174.659 112.85C174.659 144.106 90.7998 169.444 274.241 169.444C352.859 169.444 373.824 144.106 373.824 112.85C373.824 81.5932 329.239 56.2549 274.241 56.2549C219.243 56.2549 174.659 81.5932 174.659 112.85Z" fill="#645EB0"/>
<path d="M10 120.935C10 147.726 24.6806 169.445 102.977 169.445C176.38 169.445 195.954 147.726 195.954 120.935C195.954 94.1435 154.327 72.4249 102.977 72.4249C51.6273 72.4249 10 94.1435 10 120.935Z" fill="#645EB0"/>
<path d="M74.6797 96.6797C74.6797 132.401 90.6369 161.359 175.742 161.359C255.528 161.359 276.804 132.401 276.804 96.6797C276.804 60.9581 231.557 32 175.742 32C119.927 32 74.6797 60.9581 74.6797 96.6797Z" fill="#645EB0"/>
</g>
<defs>
<filter id="filter0_d_1_132" x="-26" y="0" width="435.824" height="209.445" filterUnits="userSpaceOnUse" color-interpolation-filters="sRGB">
<feFlood flood-opacity="0" result="BackgroundImageFix"/>
<feColorMatrix in="SourceAlpha" type="matrix" values="0 0 0 0 0 0 0 0 0 0 0 0 0 0 0 0 0 0 127 0" result="hardAlpha"/>
<feOffset dy="4"/>
<feGaussianBlur stdDeviation="18"/>
<feComposite in2="hardAlpha" operator="out"/>
<feColorMatrix type="matrix" values="0 0 0 0 0 0 0 0 0 0 0 0 0 0 0 0 0 0 0.25 0"/>
<feBlend mode="normal" in2="BackgroundImageFix" result="effect1_dropShadow_1_132"/>
<feBlend mode="normal" in="SourceGraphic" in2="effect1_dropShadow_1_132" result="shape"/>
</filter>
</defs>
</svg>
