<svg width="390" height="210" viewBox="0 0 390 210" fill="none" xmlns="http://www.w3.org/2000/svg">
<g filter="url(#filter0_d_1_137)">
<path d="M183.008 112.85C183.008 144.106 108.138 169.444 271.916 169.444C342.106 169.444 360.824 144.106 360.824 112.85C360.824 81.5932 321.018 56.2549 271.916 56.2549C222.813 56.2549 183.008 81.5932 183.008 112.85Z" fill="#645EB0"/>
<path d="M36 120.935C36 147.726 49.1069 169.444 119.01 169.444C184.545 169.444 202.021 147.726 202.021 120.935C202.021 94.1434 164.856 72.4248 119.01 72.4248C73.165 72.4248 36 94.1434 36 120.935Z" fill="#645EB0"/>
<path d="M93.7464 96.6797C93.7464 132.401 107.993 161.359 183.975 161.359C255.208 161.359 274.204 132.401 274.204 96.6797C274.204 60.9581 233.807 32 183.975 32C134.143 32 93.7464 60.9581 93.7464 96.6797Z" fill="#645EB0"/>
</g>
<defs>
<filter id="filter0_d_1_137" x="0" y="0" width="396.824" height="209.444" filterUnits="userSpaceOnUse" color-interpolation-filters="sRGB">
<feFlood flood-opacity="0" result="BackgroundImageFix"/>
<feColorMatrix in="SourceAlpha" type="matrix" values="0 0 0 0 0 0 0 0 0 0 0 0 0 0 0 0 0 0 127 0" result="hardAlpha"/>
<feOffset dy="4"/>
<feGaussianBlur stdDeviation="18"/>
<feComposite in2="hardAlpha" operator="out"/>
<feColorMatrix type="matrix" values="0 0 0 0 0 0 0 0 0 0 0 0 0 0 0 0 0 0 0.25 0"/>
<feBlend mode="normal" in2="BackgroundImageFix" result="effect1_dropShadow_1_137"/>
<feBlend mode="normal" in="SourceGraphic" in2="effect1_dropShadow_1_137" result="shape"/>
</filter>
</defs>
</svg>
