<svg width="654" height="319" viewBox="0 0 654 319" fill="none" xmlns="http://www.w3.org/2000/svg">
<g filter="url(#filter0_d_1_224)">
<path d="M200.659 112.85C200.659 144.106 116.8 169.444 300.241 169.444C378.859 169.444 399.823 144.106 399.823 112.85C399.823 81.5932 355.239 56.2549 300.241 56.2549C245.243 56.2549 200.659 81.5932 200.659 112.85Z" fill="#645EB0"/>
<path d="M36 120.935C36 147.726 50.6806 169.445 128.977 169.445C202.38 169.445 221.954 147.726 221.954 120.935C221.954 94.1435 180.327 72.4249 128.977 72.4249C77.6272 72.4249 36 94.1435 36 120.935Z" fill="#645EB0"/>
<path d="M100.68 96.6797C100.68 132.401 116.637 161.359 201.742 161.359C281.528 161.359 302.804 132.401 302.804 96.6797C302.804 60.9581 257.557 32 201.742 32C145.927 32 100.68 60.9581 100.68 96.6797Z" fill="#645EB0"/>
</g>
<g filter="url(#filter1_d_1_224)">
<path d="M435.008 120.85C435.008 152.106 360.138 177.444 523.916 177.444C594.106 177.444 612.823 152.106 612.823 120.85C612.823 89.5932 573.018 64.2549 523.916 64.2549C474.813 64.2549 435.008 89.5932 435.008 120.85Z" fill="#645EB0"/>
<path d="M288 128.935C288 155.726 301.107 177.444 371.01 177.444C436.545 177.444 454.021 155.726 454.021 128.935C454.021 102.143 416.856 80.4248 371.01 80.4248C325.165 80.4248 288 102.143 288 128.935Z" fill="#645EB0"/>
<path d="M345.746 104.68C345.746 140.401 359.993 169.359 435.975 169.359C507.208 169.359 526.204 140.401 526.204 104.68C526.204 68.9581 485.807 40 435.975 40C386.143 40 345.746 68.9581 345.746 104.68Z" fill="#645EB0"/>
</g>
<g filter="url(#filter2_d_1_224)">
<path d="M245.278 214.056C245.278 249.923 319.5 279 157.139 279C87.5553 279 68.9998 249.923 68.9998 214.056C68.9998 178.188 108.461 149.111 157.139 149.111C205.816 149.111 245.278 178.188 245.278 214.056Z" fill="#645EB0"/>
<path d="M365.889 214.056C365.889 249.923 351.972 279 277.75 279C208.166 279 189.611 249.923 189.611 214.056C189.611 178.188 229.072 149.111 277.75 149.111C326.428 149.111 365.889 178.188 365.889 214.056Z" fill="#645EB0"/>
<path d="M300.944 176.944C300.944 212.812 287.028 241.889 212.805 241.889C143.222 241.889 124.666 212.812 124.666 176.944C124.666 141.077 164.128 112 212.805 112C261.483 112 300.944 141.077 300.944 176.944Z" fill="#645EB0"/>
</g>
<g filter="url(#filter3_d_1_224)">
<path d="M497.278 208.056C497.278 243.923 571.5 273 409.139 273C339.555 273 321 243.923 321 208.056C321 172.188 360.461 143.111 409.139 143.111C457.816 143.111 497.278 172.188 497.278 208.056Z" fill="#645EB0"/>
<path d="M617.889 208.056C617.889 243.923 603.972 273 529.75 273C460.166 273 441.611 243.923 441.611 208.056C441.611 172.188 481.072 143.111 529.75 143.111C578.428 143.111 617.889 172.188 617.889 208.056Z" fill="#645EB0"/>
<path d="M552.944 170.944C552.944 206.812 539.028 235.889 464.805 235.889C395.222 235.889 376.666 206.812 376.666 170.944C376.666 135.077 416.128 106 464.805 106C513.483 106 552.944 135.077 552.944 170.944Z" fill="#645EB0"/>
</g>
<defs>
<filter id="filter0_d_1_224" x="0" y="0" width="435.823" height="209.445" filterUnits="userSpaceOnUse" color-interpolation-filters="sRGB">
<feFlood flood-opacity="0" result="BackgroundImageFix"/>
<feColorMatrix in="SourceAlpha" type="matrix" values="0 0 0 0 0 0 0 0 0 0 0 0 0 0 0 0 0 0 127 0" result="hardAlpha"/>
<feOffset dy="4"/>
<feGaussianBlur stdDeviation="18"/>
<feComposite in2="hardAlpha" operator="out"/>
<feColorMatrix type="matrix" values="0 0 0 0 0 0 0 0 0 0 0 0 0 0 0 0 0 0 0.25 0"/>
<feBlend mode="normal" in2="BackgroundImageFix" result="effect1_dropShadow_1_224"/>
<feBlend mode="normal" in="SourceGraphic" in2="effect1_dropShadow_1_224" result="shape"/>
</filter>
<filter id="filter1_d_1_224" x="252" y="8" width="396.823" height="209.444" filterUnits="userSpaceOnUse" color-interpolation-filters="sRGB">
<feFlood flood-opacity="0" result="BackgroundImageFix"/>
<feColorMatrix in="SourceAlpha" type="matrix" values="0 0 0 0 0 0 0 0 0 0 0 0 0 0 0 0 0 0 127 0" result="hardAlpha"/>
<feOffset dy="4"/>
<feGaussianBlur stdDeviation="18"/>
<feComposite in2="hardAlpha" operator="out"/>
<feColorMatrix type="matrix" values="0 0 0 0 0 0 0 0 0 0 0 0 0 0 0 0 0 0 0.25 0"/>
<feBlend mode="normal" in2="BackgroundImageFix" result="effect1_dropShadow_1_224"/>
<feBlend mode="normal" in="SourceGraphic" in2="effect1_dropShadow_1_224" result="shape"/>
</filter>
<filter id="filter2_d_1_224" x="32.9998" y="80" width="368.889" height="239" filterUnits="userSpaceOnUse" color-interpolation-filters="sRGB">
<feFlood flood-opacity="0" result="BackgroundImageFix"/>
<feColorMatrix in="SourceAlpha" type="matrix" values="0 0 0 0 0 0 0 0 0 0 0 0 0 0 0 0 0 0 127 0" result="hardAlpha"/>
<feOffset dy="4"/>
<feGaussianBlur stdDeviation="18"/>
<feComposite in2="hardAlpha" operator="out"/>
<feColorMatrix type="matrix" values="0 0 0 0 0 0 0 0 0 0 0 0 0 0 0 0 0 0 0.25 0"/>
<feBlend mode="normal" in2="BackgroundImageFix" result="effect1_dropShadow_1_224"/>
<feBlend mode="normal" in="SourceGraphic" in2="effect1_dropShadow_1_224" result="shape"/>
</filter>
<filter id="filter3_d_1_224" x="285" y="74" width="368.889" height="239" filterUnits="userSpaceOnUse" color-interpolation-filters="sRGB">
<feFlood flood-opacity="0" result="BackgroundImageFix"/>
<feColorMatrix in="SourceAlpha" type="matrix" values="0 0 0 0 0 0 0 0 0 0 0 0 0 0 0 0 0 0 127 0" result="hardAlpha"/>
<feOffset dy="4"/>
<feGaussianBlur stdDeviation="18"/>
<feComposite in2="hardAlpha" operator="out"/>
<feColorMatrix type="matrix" values="0 0 0 0 0 0 0 0 0 0 0 0 0 0 0 0 0 0 0.25 0"/>
<feBlend mode="normal" in2="BackgroundImageFix" result="effect1_dropShadow_1_224"/>
<feBlend mode="normal" in="SourceGraphic" in2="effect1_dropShadow_1_224" result="shape"/>
</filter>
</defs>
</svg>
